<svg width="24" height="24" viewBox="0 0 24 24" fill="none" xmlns="http://www.w3.org/2000/svg">
<path d="M23.6736 21.4615L10.8164 9.75536L11.4149 9.15535C11.8868 8.68142 12.1695 8.05147 12.2098 7.38383L12.2788 7.34933L14.6922 5.84032C14.8498 5.64819 14.9314 5.40486 14.9214 5.15654C14.9115 4.90822 14.8107 4.6722 14.6382 4.49331L10.4399 0.284264C10.2617 0.111679 10.0262 0.0107749 9.77827 0.000814476C9.53039 -0.00914599 9.28751 0.0725342 9.09601 0.230264L7.5901 2.65129L7.55711 2.72029C6.91215 2.76079 6.27918 3.02629 5.79021 3.5168L3.50735 5.80732C3.01688 6.29782 2.7529 6.93233 2.7124 7.57883L2.64341 7.61334L0.230056 9.12235C0.0724377 9.31448 -0.00913978 9.55781 0.000814406 9.80613C0.0107686 10.0544 0.111561 10.2905 0.284053 10.4694L4.48229 14.6784C4.66052 14.851 4.89606 14.9519 5.14395 14.9619C5.39184 14.9718 5.63471 14.8901 5.82621 14.7324L7.33212 12.3114L7.36662 12.2424C8.01158 12.2019 8.64454 11.9364 9.13351 11.4459L9.79647 10.7814L21.4702 23.6755C21.8092 24.049 22.3297 24.109 22.6297 23.809L23.8101 22.6255C24.1086 22.3255 24.0486 21.802 23.6766 21.463L23.6736 21.4615Z" fill="white"/>
</svg>
