<svg width="10" height="12" viewBox="0 0 10 12" fill="none" xmlns="http://www.w3.org/2000/svg">
<path d="M8.44817 5.46667C8.29484 5.26667 8.10817 5.09333 7.93484 4.92C7.48817 4.52 6.9815 4.23333 6.55484 3.81333C5.5615 2.84 5.3415 1.23333 5.97484 0C5.3415 0.153333 4.78817 0.5 4.31484 0.88C2.58817 2.26667 1.90817 4.71333 2.7215 6.81333C2.74817 6.88 2.77484 6.94667 2.77484 7.03333C2.77484 7.18 2.67484 7.31333 2.5415 7.36667C2.38817 7.43333 2.22817 7.39333 2.1015 7.28667C2.06367 7.25497 2.03202 7.21655 2.00817 7.17333C1.25484 6.22 1.13484 4.85333 1.6415 3.76C0.528171 4.66667 -0.0784955 6.2 0.00817116 7.64667C0.0481712 7.98 0.0881711 8.31333 0.201504 8.64667C0.294838 9.04667 0.474838 9.44667 0.674838 9.8C1.39484 10.9533 2.6415 11.78 3.9815 11.9467C5.40817 12.1267 6.93484 11.8667 8.02817 10.88C9.24817 9.77333 9.67484 8 9.04817 6.48L8.9615 6.30667C8.8215 6 8.44817 5.46667 8.44817 5.46667ZM6.3415 9.66667C6.15484 9.82667 5.84817 10 5.60817 10.0667C4.8615 10.3333 4.11484 9.96 3.67484 9.52C4.46817 9.33333 4.9415 8.74667 5.0815 8.15333C5.19484 7.62 4.9815 7.18 4.89484 6.66667C4.81484 6.17333 4.82817 5.75333 5.00817 5.29333C5.13484 5.54667 5.26817 5.8 5.42817 6C5.9415 6.66667 6.74817 6.96 6.9215 7.86667C6.94817 7.96 6.9615 8.05333 6.9615 8.15333C6.9815 8.7 6.7415 9.3 6.3415 9.66667Z" fill="#E10E0E"/>
</svg>