<svg width="13" height="12" viewBox="0 0 13 12" fill="none" xmlns="http://www.w3.org/2000/svg">
<path d="M7.02438 10.0041L10.0509 11.9213C10.4378 12.1661 10.9178 11.8018 10.8031 11.3501L9.92897 7.91076C9.90428 7.81495 9.90713 7.71413 9.93719 7.61987C9.96725 7.52562 10.0233 7.44176 10.0989 7.37794L12.8129 5.11945C13.1691 4.8228 12.9857 4.23094 12.5273 4.20118L8.98334 3.97077C8.88792 3.964 8.79639 3.93027 8.7194 3.8735C8.6424 3.81673 8.58312 3.73926 8.54844 3.65011L7.22647 0.321667C7.19048 0.227074 7.12658 0.145657 7.04325 0.0882099C6.95992 0.0307629 6.8611 0 6.75989 0C6.65868 0 6.55986 0.0307629 6.47654 0.0882099C6.39321 0.145657 6.32931 0.227074 6.29332 0.321667L4.97135 3.65011C4.93674 3.73935 4.87749 3.81692 4.80049 3.87378C4.72349 3.93063 4.63192 3.96444 4.53645 3.97125L0.992475 4.20165C0.534537 4.23094 0.35021 4.8228 0.706864 5.11945L3.42089 7.37842C3.4964 7.4422 3.5524 7.52597 3.58245 7.62014C3.61251 7.7143 3.61541 7.81502 3.59081 7.91076L2.78054 11.1005C2.64278 11.6424 3.21928 12.0797 3.68298 11.7855L6.49588 10.0041C6.57494 9.95385 6.66669 9.92716 6.76037 9.92716C6.85406 9.92716 6.9458 9.95385 7.02486 10.0041H7.02438Z" fill="#CCCCCC"/>
</svg>