<svg width="20" height="20" viewBox="0 0 14 12" fill="none" xmlns="http://www.w3.org/2000/svg">
<path d="M7.10178 10.0041L10.1283 11.9213C10.5152 12.1661 10.9952 11.8018 10.8805 11.3501L10.0064 7.91076C9.98168 7.81495 9.98452 7.71413 10.0146 7.61987C10.0446 7.52562 10.1007 7.44176 10.1763 7.37794L12.8903 5.11945C13.2465 4.8228 13.0631 4.23094 12.6047 4.20118L9.06073 3.97077C8.96531 3.964 8.87378 3.93027 8.79679 3.8735C8.7198 3.81673 8.66051 3.73926 8.62584 3.65011L7.30386 0.321667C7.26787 0.227074 7.20397 0.145657 7.12064 0.0882099C7.03732 0.0307629 6.9385 0 6.83729 0C6.73608 0 6.63726 0.0307629 6.55393 0.0882099C6.4706 0.145657 6.40671 0.227074 6.37071 0.321667L5.04874 3.65011C5.01413 3.73935 4.95488 3.81692 4.87788 3.87378C4.80089 3.93063 4.70931 3.96444 4.61384 3.97125L1.06987 4.20165C0.61193 4.23094 0.427603 4.8228 0.784256 5.11945L3.49828 7.37842C3.57379 7.4422 3.62979 7.52597 3.65985 7.62014C3.6899 7.7143 3.6928 7.81502 3.66821 7.91076L2.85794 11.1005C2.72017 11.6424 3.29667 12.0797 3.76037 11.7855L6.57328 10.0041C6.65234 9.95385 6.74408 9.92716 6.83777 9.92716C6.93145 9.92716 7.0232 9.95385 7.10226 10.0041H7.10178Z" fill="#FF8A00"/>
</svg>